<svg id="Livello_1" data-name="Livello 1" xmlns="http://www.w3.org/2000/svg" width="300px" height="100px" viewBox="0 0 495.26 147.59">
  <title>Gruppo_Montello_logo</title>
  <g>
    <g>
      <rect x="162.93" y="73.26" width="59.29" height="74.33" fill="#ffed00"/>
      <rect x="187.42" y="92.14" width="11.04" height="42.83" fill="#e30613"/>
      <path d="M219.61,108.15v42.78h-11V117.47c0-6,1.88-9.32,5.47-9.32Z" transform="translate(-35.48 -16)" fill="#e30613"/>
      <path d="M219.61,119.65v31.17h-4.69V126.44c0-4.35,1.37-6.79,4-6.79Z" transform="translate(-35.48 -16)" fill="#5f4220"/>
      <path d="M233.87,119.65v31.17h-4.7V126.44c0-4.35,1.37-6.79,4-6.79Z" transform="translate(-35.48 -16)" fill="#5f4220"/>
      <path d="M233.94,119.65v31.17h-4.69V126.44c0-4.35,1.37-6.79,4-6.79Z" transform="translate(-35.48 -16)" fill="#5f4220"/>
      <path d="M237,108.15v42.78h11V117.47c0-6-1.88-9.32-5.48-9.32Z" transform="translate(-35.48 -16)" fill="#e30613"/>
      <path d="M237,119.65v31.17h4.69V126.44c0-4.35-1.37-6.79-4-6.79Z" transform="translate(-35.48 -16)" fill="#5f4220"/>
      <path d="M222.9,119.65v31.17h4.69V126.44c0-4.35-1.37-6.79-4-6.79Z" transform="translate(-35.48 -16)" fill="#5f4220"/>
      <g>
        <path d="M208.58,95.94h1.91l.73,6.94.73-6.94h1.9v11.4h-1.19V98.65l-.91,8.69h-1.07l-.91-8.69v8.69h-1.19Z" transform="translate(-35.48 -16)" fill="#5f4220"/>
        <path d="M214.6,101.65a11.65,11.65,0,0,1,.64-4.34q.63-1.56,1.77-1.56c.79,0,1.39.51,1.81,1.52a11.66,11.66,0,0,1,.63,4.29,15.46,15.46,0,0,1-.28,3.27,5.36,5.36,0,0,1-.79,2,1.58,1.58,0,0,1-1.31.71,1.64,1.64,0,0,1-1.31-.61,4.69,4.69,0,0,1-.84-2A14.06,14.06,0,0,1,214.6,101.65Zm1.45,0a8.07,8.07,0,0,0,.26,2.47c.17.51.41.76.71.76s.56-.25.73-.74a9.29,9.29,0,0,0,.25-2.65,7.76,7.76,0,0,0-.26-2.35c-.18-.5-.42-.75-.73-.75s-.52.26-.7.76A8.21,8.21,0,0,0,216.05,101.67Z" transform="translate(-35.48 -16)" fill="#5f4220"/>
        <path d="M220.24,95.94h1.35l1.77,6.31V95.94h1.36v11.4h-1.36l-1.75-6.26v6.26h-1.37Z" transform="translate(-35.48 -16)" fill="#5f4220"/>
        <path d="M225.36,95.94h4.4v2.82h-1.48v8.58h-1.45V98.76h-1.47Z" transform="translate(-35.48 -16)" fill="#5f4220"/>
        <path d="M230.41,95.94h3.88v2.43h-2.43v1.82h2.25v2.32h-2.25v2.25h2.5v2.58h-4Z" transform="translate(-35.48 -16)" fill="#5f4220"/>
        <path d="M235.14,95.94h1.45v8.59h2.26v2.81h-3.71Z" transform="translate(-35.48 -16)" fill="#5f4220"/>
        <path d="M239.51,95.94H241v8.59h2.26v2.81h-3.71Z" transform="translate(-35.48 -16)" fill="#5f4220"/>
        <path d="M243.58,101.65a11.65,11.65,0,0,1,.64-4.34c.43-1,1-1.56,1.78-1.56s1.38.51,1.81,1.52a11.69,11.69,0,0,1,.62,4.29,15.55,15.55,0,0,1-.27,3.27,5.19,5.19,0,0,1-.8,2,1.55,1.55,0,0,1-1.3.71,1.63,1.63,0,0,1-1.31-.61,4.82,4.82,0,0,1-.85-2A14.62,14.62,0,0,1,243.58,101.65Zm1.45,0a8.41,8.41,0,0,0,.26,2.47c.18.51.42.76.72.76s.55-.25.72-.74a9.19,9.19,0,0,0,.26-2.65,7.38,7.38,0,0,0-.27-2.35c-.17-.5-.42-.75-.72-.75s-.53.26-.7.76A8.14,8.14,0,0,0,245,101.67Z" transform="translate(-35.48 -16)" fill="#5f4220"/>
      </g>
    </g>
    <g>
      <path d="M212.7,158.2a3.53,3.53,0,0,1-1.29.21,2.41,2.41,0,0,1-2.65-2.53,2.57,2.57,0,0,1,2.77-2.68,2.93,2.93,0,0,1,1.24.22l-.24.9a2.41,2.41,0,0,0-1-.18,1.66,1.66,0,0,0,0,3.32,3,3,0,0,0,1-.16Z" transform="translate(-35.48 -16)" fill="#5f4220"/>
      <path d="M214.72,157l-.37,1.3h-1.17l1.54-5.06h1.5l1.58,5.06h-1.24l-.4-1.3Zm1.28-.86-.32-1.07c-.08-.3-.18-.67-.25-1h0c-.07.3-.15.68-.23,1l-.3,1.07Z" transform="translate(-35.48 -16)" fill="#5f4220"/>
      <path d="M218.47,153.27h1.14v4.1h2v1h-3.15Z" transform="translate(-35.48 -16)" fill="#5f4220"/>
      <path d="M222,157.71l2.4-3.46v0H222.2v-.95h3.67v.66l-2.36,3.42v0h2.4v1H222Z" transform="translate(-35.48 -16)" fill="#5f4220"/>
      <path d="M227.87,157l-.36,1.3h-1.18l1.54-5.06h1.5l1.58,5.06h-1.24l-.39-1.3Zm1.28-.86-.31-1.07c-.09-.3-.18-.67-.26-1h0c-.08.3-.16.68-.23,1l-.31,1.07Z" transform="translate(-35.48 -16)" fill="#5f4220"/>
      <path d="M232,154.23h-1.37v-1h3.89v1h-1.38v4.1H232Z" transform="translate(-35.48 -16)" fill="#5f4220"/>
      <path d="M236.25,153.27v2.9c0,.88.34,1.33.91,1.33s.93-.43.93-1.33v-2.9h1.14v2.84c0,1.56-.78,2.3-2.1,2.3s-2-.71-2-2.31v-2.83Z" transform="translate(-35.48 -16)" fill="#5f4220"/>
      <path d="M240.23,153.34a10,10,0,0,1,1.52-.1,2.57,2.57,0,0,1,1.64.39,1.32,1.32,0,0,1,.47,1.07,1.35,1.35,0,0,1-.89,1.24v0a1.24,1.24,0,0,1,.67.94c.16.58.31,1.23.41,1.43h-1.17a5.87,5.87,0,0,1-.35-1.18c-.14-.64-.36-.8-.83-.81h-.34v2h-1.13Zm1.13,2.18h.45c.57,0,.91-.29.91-.73s-.32-.7-.84-.7a1.85,1.85,0,0,0-.52,0Z" transform="translate(-35.48 -16)" fill="#5f4220"/>
      <path d="M247.69,156.19h-1.86v1.2h2.08v.94h-3.22v-5.06h3.11v.94h-2v1h1.86Z" transform="translate(-35.48 -16)" fill="#5f4220"/>
    </g>
  </g>
  <g>
    <path d="M444.79,125c-4,0-6.33-3.74-6.33-11s2.34-11,6.33-11,6.38,3.85,6.38,11S448.78,125,444.79,125Zm0-5.11c2.11,0,2.45-3.58,2.46-5.85,0-2-.29-5.86-2.46-5.86s-2.51,3.88-2.51,5.86C442.28,116.27,442.73,119.85,444.79,119.85Z" transform="translate(-35.48 -16)" fill="#ee743b"/>
    <path d="M460.46,116c0,2,.24,3.5,1.92,3.5s1.75-1.42,1.75-3.47V103.55H468v12.36c0,6.81-2.26,9-5.71,9-3.19,0-5.68-2.42-5.68-8.63V103.55h3.81Z" transform="translate(-35.48 -16)" fill="#ee743b"/>
    <path d="M484,108.92h-3.51v15.62h-4V108.92H473v-5.37h11Z" transform="translate(-35.48 -16)" fill="#ee743b"/>
    <path d="M529.82,108.92h-3.51v15.62h-4V108.92h-3.51v-5.37h11Z" transform="translate(-35.48 -16)" fill="#ee743b"/>
    <path d="M489,103.49h3.9V119h5.55v5.34H489Z" transform="translate(-35.48 -16)" fill="#ee743b"/>
    <path d="M503.53,103.49H514v5h-6.67v2.73h6v4.83h-6v3.14h6.79v5.16H503.53Z" transform="translate(-35.48 -16)" fill="#ee743b"/>
    <g>
      <path d="M470.91,135.06h-2.5V149.3h-4.35V135.06h-2.5V128.3h9.35Z" transform="translate(-35.48 -16)" fill="#ffcd1c"/>
      <path d="M447.93,141.72l.27.31c.91,1.08,1.79,1.81,3,1.81a1,1,0,0,0,1-1c0-1.05-.47-1.11-1.05-1.36l-1.19-.53c-2.12-1.16-2.87-3-2.84-5.6.06-5,2.29-7.46,5.34-7.46a5.84,5.84,0,0,1,4.18,1.9l-1.38,5.37c-.88-.9-1.59-1.58-2.69-1.58-.44,0-.84.25-.84,1.12s.77,1,1.15,1.17l.77.26c2.16.74,3.27,2.46,3.27,6.07,0,5.06-2.6,7.59-5.63,7.59-1.76,0-3.17-1.07-4.75-2.28Z" transform="translate(-35.48 -16)" fill="#ffcd1c"/>
      <path d="M489.5,138.89c0,6.84-3,10.93-6.72,10.93s-6.72-4.09-6.72-10.93c0-6.69,3-11,6.72-11S489.5,132.2,489.5,138.89Zm-9,.11c0,2.43.93,4.1,2.27,4.1s2.28-1.67,2.28-4.1c0-2.26-.87-4.14-2.28-4.14S480.51,136.74,480.51,139Z" transform="translate(-35.48 -16)" fill="#ffcd1c"/>
      <path d="M495.36,128.3h5.53c2.84,0,5.25,2,5.25,7.27,0,3.17-.77,4.31-2.48,5.25,0,0,.56,1,.81,1.62l2.74,6.8h-5.28l-2-6.72h-.08v6.72h-4.48Zm4.47,9.53h.39c.75,0,1.68-.41,1.68-2s-.86-2.26-1.65-2.26h-.39Z" transform="translate(-35.48 -16)" fill="#ffcd1c"/>
      <path d="M512.06,128.3h8.39V134h-3.82v2h3.49v5.44h-3.49v2.06h4v5.72h-8.52Z" transform="translate(-35.48 -16)" fill="#ffcd1c"/>
    </g>
  </g>
  <g>
    <polygon points="1.11 132.41 11.73 110.08 22.23 132.49 18.14 132.49 15.66 127.34 7.48 127.34 5.09 132.49 1.11 132.41" fill="#005ca9"/>
    <polygon points="8.98 123.8 11.73 118.02 14.29 123.76 8.98 123.8" fill="#fff"/>
    <polygon points="32.97 114.28 32.97 110.71 19.32 110.71 19.32 114.28 23.84 114.28 23.84 132.55 28.09 132.55 28.09 114.28 32.97 114.28" fill="#005ca9"/>
    <polygon points="34.42 110.71 38.28 110.71 38.28 128.84 44.89 128.84 44.89 132.55 34.42 132.55 34.42 110.71" fill="#005ca9"/>
    <polygon points="73.2 109.01 89.2 124.67 89.2 110.71 93.06 110.71 93.06 133.79 76.94 117.77 76.94 132.55 73.2 132.55 73.2 109.01" fill="#005ca9"/>
    <polygon points="94.67 110.71 108.4 110.71 108.4 114.28 103.48 114.28 103.48 132.55 99.43 132.55 99.43 114.28 94.67 114.28 94.67 110.71" fill="#005ca9"/>
    <polygon points="109.97 110.71 122.83 110.71 122.83 114.33 113.71 114.33 113.71 118.92 122.56 118.92 122.56 122.27 113.63 122.27 113.63 128.75 122.83 128.75 122.83 132.55 109.97 132.55 109.97 110.71" fill="#005ca9"/>
    <path d="M106.35,142.51h-4.08l-4.75-12.58a35.36,35.36,0,0,0-3.4,3.84c-1.82,2.36-2.51,3.46-2.51,3.46a21.16,21.16,0,0,0-2.24-3.46c-1.4-1.75-4.16-4.43-4.16-4.43l-5,13.17H76.05s5.76-14.85,5.88-15.25.2-.39-.43-.76a26,26,0,0,0-12-4.58c-7.59-1.1-8.54-.8-13-1.38s-8.31-1.08-11.07-2.2-2.75-1.45-2.75-1.45a32.62,32.62,0,0,0,9.73,2.57c5.43.52,11.54.47,15,.44s8.52.27,12.22,1.88,3.63,1.77,3.7,1.61,8-20.33,8-20.33,7.69,20.11,7.79,20.3.22.44.41.34a19.92,19.92,0,0,1,7.31-2.78c4.64-.9,6.64-1,12.55-1s11.85-.43,15.68-1.77,4.86-1.84,4.86-1.84-4.62,3.39-14,4.35-13.49,1-18.31,3.18a48.79,48.79,0,0,0-6.5,3.24c-.5.29-.46.34-.39.55Z" transform="translate(-35.48 -16)" fill="#005ca9"/>
    <path d="M86.66,125.33l4.62-11.74s4.41,11.44,4.48,11.74,0,.38-.25.56-2.43,1.89-3,2.39-.81.83-.94.83-1.67-1.34-2.3-1.87a23.9,23.9,0,0,0-2.13-1.47C86.92,125.62,86.58,125.55,86.66,125.33Z" transform="translate(-35.48 -16)" fill="#fff"/>
    <path d="M91.22,134.66s-5.39-7.31-10.85-9.87-7.88-3.05-10.07-3.43-5.91-.53-7.68-.67-4-.51-4-.51,4.94.28,7.59.23,8.53.24,12.29,1.59a34.74,34.74,0,0,1,10.25,5.72l2.79,2.61s3.87-3.54,5.17-4.47a33.84,33.84,0,0,1,7.49-3.81,30.49,30.49,0,0,1,9.65-1.67c2.54-.08,4.66-.19,5.44-.2h.77s-4.82.51-7,.86a28.32,28.32,0,0,0-10.4,3.52,29.44,29.44,0,0,0-8.69,6.86C92.54,132.93,91.22,134.66,91.22,134.66Z" transform="translate(-35.48 -16)" fill="#ffed00"/>
    <g>
      <path d="M85.7,146h0l-.85,2.33H84.6L83.78,146h0l-.33,2.28H82.7l.64-3.77h.51l.92,2.42.88-2.42h.53l.56,3.77H86Z" transform="translate(-35.48 -16)" fill="#005ca9"/>
      <path d="M86.88,146.39a1.85,1.85,0,1,1,1.85,1.94A1.86,1.86,0,0,1,86.88,146.39Zm.75,0a1.11,1.11,0,1,0,2.19,0,1.1,1.1,0,1,0-2.19,0Z" transform="translate(-35.48 -16)" fill="#005ca9"/>
      <path d="M90.93,144.46h.53l2,2.57h0v-2.48h.73v3.75h-.52l-2-2.56h0v2.49h-.73Z" transform="translate(-35.48 -16)" fill="#005ca9"/>
      <path d="M95.9,148.23h-.72v-3h-.76v-.63h2.24v.63H95.9Z" transform="translate(-35.48 -16)" fill="#005ca9"/>
      <path d="M97.65,145.18V146h1.16v.61H97.65v1h1.2v.62H96.93v-3.68h1.92v.63Z" transform="translate(-35.48 -16)" fill="#005ca9"/>
      <path d="M100.07,147.61h1v.62H99.34v-3.68h.73Z" transform="translate(-35.48 -16)" fill="#005ca9"/>
      <path d="M102.06,147.61h1v.62h-1.76v-3.68h.73Z" transform="translate(-35.48 -16)" fill="#005ca9"/>
      <path d="M103.15,146.39a1.85,1.85,0,1,1,1.84,1.94A1.86,1.86,0,0,1,103.15,146.39Zm.75,0a1.11,1.11,0,1,0,2.19,0,1.1,1.1,0,1,0-2.19,0Z" transform="translate(-35.48 -16)" fill="#005ca9"/>
    </g>
  </g>
  <g>
    <path d="M408.59,140.83c0,9.76-25.24,17.69-56.39,17.69s-56.39-7.93-56.39-17.69,25.25-17.7,56.39-17.7S408.59,131.05,408.59,140.83Z" transform="translate(-35.48 -16)" fill="#ffed00"/>
    <path d="M406.63,141.15c0,4.64-24.47,8.4-54.65,8.4s-54.64-3.76-54.64-8.4,24.46-8.39,54.64-8.39S406.63,136.52,406.63,141.15Z" transform="translate(-35.48 -16)" fill="#005ca9"/>
    <polygon points="266.42 116.92 275.45 97.92 284.38 116.98 280.9 116.98 278.79 112.6 271.84 112.6 269.79 116.98 266.42 116.92" fill="#005ca9"/>
    <polygon points="273.11 109.59 275.45 104.68 277.62 109.56 273.11 109.59" fill="#fff"/>
    <polygon points="293.51 101.5 293.51 98.45 281.91 98.45 281.91 101.5 285.75 101.5 285.75 117.03 289.37 117.03 289.37 101.5 293.51 101.5" fill="#005ca9"/>
    <polygon points="294.75 98.45 298.03 98.45 298.03 113.87 303.65 113.87 303.65 117.03 294.75 117.03 294.75 98.45" fill="#005ca9"/>
    <polygon points="327.73 97.01 341.35 110.33 341.35 98.45 344.63 98.45 344.63 118.09 330.92 104.46 330.92 117.03 327.73 117.03 327.73 97.01" fill="#005ca9"/>
    <polygon points="346 98.45 357.68 98.45 357.68 101.5 353.49 101.5 353.49 117.03 350.05 117.03 350.05 101.5 346 101.5 346 98.45" fill="#005ca9"/>
    <polygon points="359.01 98.45 369.95 98.45 369.95 101.53 362.19 101.53 362.19 105.44 369.71 105.44 369.71 108.29 362.12 108.29 362.12 113.81 369.95 113.81 369.95 117.03 359.01 117.03 359.01 98.45" fill="#005ca9"/>
    <path d="M361.23,127.9h-3.46l-4-10.7a30.87,30.87,0,0,0-2.89,3.26c-1.55,2-2.13,3-2.13,3a18.25,18.25,0,0,0-1.91-3c-1.19-1.49-3.54-3.76-3.54-3.76L339,127.9h-3.57s4.89-12.64,5-13,.17-.33-.36-.65a22.31,22.31,0,0,0-10.2-3.9c-6.45-.94-7.26-.68-11.07-1.17s-7.07-.92-9.42-1.88-2.34-1.22-2.34-1.22a27.73,27.73,0,0,0,8.27,2.18,124.6,124.6,0,0,0,12.74.37c2.92,0,7.25.23,10.4,1.6s3.09,1.51,3.15,1.38l6.78-17.3S355,111.45,355,111.61s.19.38.35.29a16.81,16.81,0,0,1,6.22-2.37,47.39,47.39,0,0,1,10.67-.85c5,0,10.08-.36,13.35-1.51s4.13-1.55,4.13-1.55-3.93,2.87-11.92,3.7-11.48.87-15.58,2.69a42.46,42.46,0,0,0-5.53,2.76c-.42.25-.39.29-.33.46Z" transform="translate(-35.48 -16)" fill="#005ca9"/>
    <path d="M344.48,113.29l3.93-10s3.75,9.73,3.82,10,0,.32-.22.47-2.07,1.61-2.52,2-.69.71-.8.71-1.42-1.15-2-1.6a18.27,18.27,0,0,0-1.81-1.24C344.7,113.52,344.41,113.47,344.48,113.29Z" transform="translate(-35.48 -16)" fill="#fff"/>
    <path d="M348.36,121.22s-4.58-6.22-9.23-8.4a29.85,29.85,0,0,0-8.56-2.92c-1.86-.33-5-.44-6.53-.56s-3.41-.44-3.41-.44,4.2.24,6.45.2,7.25.2,10.46,1.35a29,29,0,0,1,8.71,4.87l2.38,2.22s3.28-3,4.4-3.81a29.08,29.08,0,0,1,6.36-3.24,26.1,26.1,0,0,1,8.22-1.42c2.16-.06,4-.15,4.62-.17h.66s-4.11.44-6,.73a24.21,24.21,0,0,0-8.85,3,24.59,24.59,0,0,0-7.39,5.84C349.49,119.75,348.36,121.22,348.36,121.22Z" transform="translate(-35.48 -16)" fill="#ffed00"/>
    <g>
      <path d="M343.67,130.83h0l-.72,2h-.22l-.7-2h0l-.29,1.93h-.62l.53-3.2h.45l.78,2.06.75-2.06h.44l.48,3.2h-.62Z" transform="translate(-35.48 -16)" fill="#005ca9"/>
      <path d="M344.67,131.2a1.58,1.58,0,1,1,1.57,1.65A1.58,1.58,0,0,1,344.67,131.2Zm.64,0a.94.94,0,1,0,1.87,0,.94.94,0,1,0-1.87,0Z" transform="translate(-35.48 -16)" fill="#005ca9"/>
      <path d="M348.12,129.56h.45l1.67,2.18h0v-2.1h.62v3.18h-.45l-1.67-2.18h0v2.12h-.62Z" transform="translate(-35.48 -16)" fill="#005ca9"/>
      <path d="M352.34,132.76h-.61v-2.59h-.64v-.53H353v.53h-.65Z" transform="translate(-35.48 -16)" fill="#005ca9"/>
      <path d="M353.83,130.17v.69h1v.52h-1v.86h1v.52h-1.64v-3.12h1.64v.53Z" transform="translate(-35.48 -16)" fill="#005ca9"/>
      <path d="M355.89,132.24h.88v.52h-1.5v-3.12h.62Z" transform="translate(-35.48 -16)" fill="#005ca9"/>
      <path d="M357.58,132.24h.88v.52H357v-3.12h.61Z" transform="translate(-35.48 -16)" fill="#005ca9"/>
      <path d="M358.51,131.2a1.57,1.57,0,1,1,1.57,1.65A1.58,1.58,0,0,1,358.51,131.2Zm.64,0a.94.94,0,1,0,1.86,0,.93.93,0,1,0-1.86,0Z" transform="translate(-35.48 -16)" fill="#005ca9"/>
    </g>
    <rect x="292.34" y="118.95" width="52.97" height="12.02" fill="#fff"/>
    <g>
      <path d="M387,138.69h1.79l.69,3.09.68-3.09h1.78v5.08h-1.1v-3.88l-.86,3.88h-1l-.86-3.88v3.88H387Z" transform="translate(-35.48 -16)" fill="#fff"/>
      <path d="M392.48,138.69h4.13v1.25h-1.38v3.83h-1.36v-3.83h-1.39Z" transform="translate(-35.48 -16)" fill="#fff"/>
      <path d="M397.23,138.69h2.54a1.3,1.3,0,0,1,1,.36,1.28,1.28,0,0,1,.33.9,1.24,1.24,0,0,1-.24.77,1,1,0,0,1-.48.34,1.16,1.16,0,0,1,.7.46,1.35,1.35,0,0,1,.22.8,1.52,1.52,0,0,1-.15.72,1.42,1.42,0,0,1-.44.5,1.27,1.27,0,0,1-.51.16,4.39,4.39,0,0,1-.61.07h-2.34Zm1.37,2h.59a.61.61,0,0,0,.44-.13.5.5,0,0,0,.12-.37.47.47,0,0,0-.12-.34.65.65,0,0,0-.43-.13h-.6Zm0,2h.69a.72.72,0,0,0,.49-.14.52.52,0,0,0,.14-.39.43.43,0,0,0-.14-.36.71.71,0,0,0-.5-.15h-.68Z" transform="translate(-35.48 -16)" fill="#fff"/>
    </g>
    <g>
      <path d="M334.33,141.85l1.76.7a4.89,4.89,0,0,1-.56,1.62,2.64,2.64,0,0,1-.94,1,2.73,2.73,0,0,1-1.43.33,3.31,3.31,0,0,1-1.73-.4,3.19,3.19,0,0,1-1.16-1.43,6,6,0,0,1-.49-2.61,5.36,5.36,0,0,1,.86-3.26,2.85,2.85,0,0,1,2.42-1.14,2.75,2.75,0,0,1,1.93.65,4,4,0,0,1,1,2l-1.77.52a2.23,2.23,0,0,0-.2-.58,1.39,1.39,0,0,0-.4-.46,1,1,0,0,0-.55-.17,1.14,1.14,0,0,0-1,.73,3.77,3.77,0,0,0-.28,1.68,4,4,0,0,0,.33,1.95,1,1,0,0,0,.92.53,1,1,0,0,0,.87-.43A3,3,0,0,0,334.33,141.85Z" transform="translate(-35.48 -16)" fill="#005ca9"/>
      <path d="M337.14,136.79h2v8.56h-2Z" transform="translate(-35.48 -16)" fill="#005ca9"/>
      <path d="M344.91,141.85l1.75.7a4.89,4.89,0,0,1-.56,1.62,2.57,2.57,0,0,1-.94,1,2.72,2.72,0,0,1-1.44.33,3.29,3.29,0,0,1-1.72-.4,3.25,3.25,0,0,1-1.16-1.43,6,6,0,0,1-.49-2.61,5.29,5.29,0,0,1,.87-3.26,2.82,2.82,0,0,1,2.41-1.14,2.75,2.75,0,0,1,1.93.65,4.05,4.05,0,0,1,1,2l-1.77.52a2.23,2.23,0,0,0-.2-.58,1.31,1.31,0,0,0-.41-.46.94.94,0,0,0-.54-.17,1.14,1.14,0,0,0-1,.73,3.92,3.92,0,0,0-.28,1.68,4,4,0,0,0,.33,1.95,1,1,0,0,0,.92.53,1,1,0,0,0,.87-.43A3.19,3.19,0,0,0,344.91,141.85Z" transform="translate(-35.48 -16)" fill="#005ca9"/>
      <path d="M347.63,136.79h2v6.45h3.13v2.11h-5.14Z" transform="translate(-35.48 -16)" fill="#005ca9"/>
      <path d="M353.75,136.79h2v8.56h-2Z" transform="translate(-35.48 -16)" fill="#005ca9"/>
      <path d="M356.85,142.52l1.91-.16a2.31,2.31,0,0,0,.25.94,1,1,0,0,0,.88.52.85.85,0,0,0,.67-.27.93.93,0,0,0,.23-.62,1,1,0,0,0-.22-.6,2.26,2.26,0,0,0-1-.49,3.9,3.9,0,0,1-1.88-1,2.4,2.4,0,0,1-.57-1.65,2.83,2.83,0,0,1,.29-1.25,2.27,2.27,0,0,1,.87-.92,3.29,3.29,0,0,1,1.6-.33,2.65,2.65,0,0,1,1.89.61,2.88,2.88,0,0,1,.78,1.94l-1.89.14a1.39,1.39,0,0,0-.32-.84.85.85,0,0,0-.66-.26.62.62,0,0,0-.52.2.65.65,0,0,0-.19.47.53.53,0,0,0,.15.36,1.33,1.33,0,0,0,.67.32,6.67,6.67,0,0,1,1.88.76,2.22,2.22,0,0,1,.83,1,2.87,2.87,0,0,1,.26,1.26,3.36,3.36,0,0,1-.34,1.52,2.44,2.44,0,0,1-1,1.06,3.05,3.05,0,0,1-1.56.35,2.71,2.71,0,0,1-2.29-.84A3.93,3.93,0,0,1,356.85,142.52Z" transform="translate(-35.48 -16)" fill="#005ca9"/>
      <path d="M363.72,136.79h2.64l1,5.21,1-5.21H371v8.56h-1.65v-6.53l-1.26,6.53h-1.49l-1.26-6.53v6.53h-1.64Z" transform="translate(-35.48 -16)" fill="#005ca9"/>
      <path d="M372,141.07a5.31,5.31,0,0,1,.88-3.26,2.9,2.9,0,0,1,2.46-1.16,3,3,0,0,1,2.5,1.14,5.23,5.23,0,0,1,.87,3.21,6.64,6.64,0,0,1-.38,2.47,3.32,3.32,0,0,1-1.1,1.49,3,3,0,0,1-1.8.53,3.28,3.28,0,0,1-1.82-.46,3.14,3.14,0,0,1-1.16-1.45A6,6,0,0,1,372,141.07Zm2,0a3.64,3.64,0,0,0,.36,1.87,1.18,1.18,0,0,0,2,0,4,4,0,0,0,.36-2,3.19,3.19,0,0,0-.38-1.76,1.12,1.12,0,0,0-1-.56,1.11,1.11,0,0,0-1,.57A3.48,3.48,0,0,0,374,141.08Z" transform="translate(-35.48 -16)" fill="#005ca9"/>
    </g>
    <g>
      <path d="M304.72,141.69l1.19.42a2.72,2.72,0,0,1-.38,1,1.71,1.71,0,0,1-.64.59,2.12,2.12,0,0,1-1,.2,2.61,2.61,0,0,1-1.17-.24,2.05,2.05,0,0,1-.79-.85,3.36,3.36,0,0,1-.33-1.55,2.91,2.91,0,0,1,.58-1.95,2.06,2.06,0,0,1,1.65-.68,2,2,0,0,1,1.3.4,2.43,2.43,0,0,1,.71,1.19l-1.2.31a2.24,2.24,0,0,0-.13-.34.8.8,0,0,0-.28-.27.69.69,0,0,0-.37-.1.77.77,0,0,0-.71.43,2.86,2.86,0,0,0,0,2.15.7.7,0,0,0,.62.32.74.74,0,0,0,.59-.25A1.82,1.82,0,0,0,304.72,141.69Z" transform="translate(-35.48 -16)" fill="#fff"/>
      <path d="M306.39,141.23a2.92,2.92,0,0,1,.6-1.94,2.11,2.11,0,0,1,1.67-.7,2.17,2.17,0,0,1,1.7.69,2.83,2.83,0,0,1,.59,1.91,3.57,3.57,0,0,1-.26,1.46,2,2,0,0,1-.75.89,2.21,2.21,0,0,1-1.22.32,2.38,2.38,0,0,1-1.23-.28,2,2,0,0,1-.79-.86A3.16,3.16,0,0,1,306.39,141.23Zm1.36,0a1.92,1.92,0,0,0,.25,1.1.79.79,0,0,0,.67.34.8.8,0,0,0,.68-.33,2.1,2.1,0,0,0,.24-1.18,1.73,1.73,0,0,0-.25-1,.82.82,0,0,0-.68-.33.78.78,0,0,0-.66.34A1.93,1.93,0,0,0,307.75,141.24Z" transform="translate(-35.48 -16)" fill="#fff"/>
      <path d="M311.69,143.77v-5.08H314a2.7,2.7,0,0,1,1,.12,1.09,1.09,0,0,1,.54.46,1.57,1.57,0,0,1,.2.83,1.67,1.67,0,0,1-.15.73,1.36,1.36,0,0,1-.43.49,1.54,1.54,0,0,1-.48.21,1.23,1.23,0,0,1,.35.18,1.5,1.5,0,0,1,.22.27,2.15,2.15,0,0,1,.19.32l.66,1.47h-1.54l-.72-1.55a1,1,0,0,0-.25-.39.5.5,0,0,0-.33-.12h-.12v2.06Zm1.37-3h.58a1.82,1.82,0,0,0,.35-.08.32.32,0,0,0,.22-.16.48.48,0,0,0,.09-.29.52.52,0,0,0-.14-.38.71.71,0,0,0-.51-.13h-.59Z" transform="translate(-35.48 -16)" fill="#fff"/>
      <path d="M316.22,142.09l1.29-.1a1.2,1.2,0,0,0,.17.56.67.67,0,0,0,.6.31.59.59,0,0,0,.45-.16.54.54,0,0,0,.16-.37.5.5,0,0,0-.16-.35,1.51,1.51,0,0,0-.69-.29,2.83,2.83,0,0,1-1.27-.62,1.32,1.32,0,0,1-.39-1,1.53,1.53,0,0,1,.2-.75,1.35,1.35,0,0,1,.59-.54,2.43,2.43,0,0,1,1.08-.21,2,2,0,0,1,1.28.37,1.67,1.67,0,0,1,.53,1.16l-1.28.08a.81.81,0,0,0-.22-.5.61.61,0,0,0-.45-.15.52.52,0,0,0-.36.11.42.42,0,0,0-.12.28.29.29,0,0,0,.11.22.86.86,0,0,0,.45.19,5.18,5.18,0,0,1,1.27.45,1.42,1.42,0,0,1,.57.57,1.63,1.63,0,0,1,.17.75,1.85,1.85,0,0,1-.23.9,1.64,1.64,0,0,1-.65.63,2.4,2.4,0,0,1-1.07.21,2,2,0,0,1-1.55-.5A2.18,2.18,0,0,1,316.22,142.09Z" transform="translate(-35.48 -16)" fill="#fff"/>
      <path d="M323.59,142.93h-1.54l-.22.84h-1.39l1.66-5.08h1.48l1.64,5.08H323.8Zm-.28-1.09-.5-1.84-.47,1.84Z" transform="translate(-35.48 -16)" fill="#fff"/>
    </g>
  </g>
  <rect x="1.11" y="57.21" width="123.3" height="6.72" fill="#ffed00"/>
  <rect x="124.41" y="57.21" width="123.3" height="6.72" fill="#e51f29"/>
  <rect x="247.71" y="57.21" width="123.33" height="6.72" fill="#005ca9"/>
  <rect x="371.03" y="57.21" width="123.3" height="6.72" fill="#5f4220"/>
  <g>
    <path d="M75,40.07c.11,5.49-.63,10.3-4.15,14.52a19.9,19.9,0,0,1-15,7.06c-11,0-20.35-10.19-20.35-22.22,0-12.49,9.31-22.56,20.67-22.56,7.2,0,13,3.93,17.19,10.18l-2,1.79c-3.52-5.78-8.88-9.37-15.3-9.37-9.67,0-18,9.32-18,19.79C38,50,46.11,59,56,59a18,18,0,0,0,11.67-4.8c3.42-3.18,4.68-6.83,4.84-11.57H58.3v-2.6Z" transform="translate(-35.48 -16)" fill="#575756"/>
    <path d="M100.79,61.07H97.9L85,40.42H83.71V61.07H81.18V17.45h4.95c3.2,0,6.36.05,9,2.2,2.84,2.19,4,5.66,4,9.37,0,7.57-4.78,11.51-11.35,11.4ZM86.91,37.81c2.48,0,5-.11,6.94-2a9.12,9.12,0,0,0,2.79-6.89c0-3.24-1.37-6.48-4.21-7.87-2.1-1.1-4.78-1-7.09-1H83.71V37.81Z" transform="translate(-35.48 -16)" fill="#575756"/>
    <path d="M130.87,17.45h2.53V44.64c0,4.45,0,8.27-2.68,11.92a14,14,0,0,1-21.56,0c-2.68-3.65-2.68-7.47-2.68-11.92V17.45H109V43.83c0,3.93,0,8.1,2,11S116.89,59,119.94,59s6.94-1.44,8.88-4.22,2.05-7.06,2.05-11Z" transform="translate(-35.48 -16)" fill="#575756"/>
    <path d="M144.08,61.07h-2.53V17.45h7c3.1,0,6.1.23,8.57,2.54a12.12,12.12,0,0,1,3.57,9c0,3.12-1.1,6.6-3.31,8.62-2.42,2.31-5.73,2.78-8.83,2.78h-4.47Zm4.57-23.32c2.58,0,4.89-.34,6.94-2.37a8.94,8.94,0,0,0,2.58-6.54,9.05,9.05,0,0,0-3-7c-2-1.68-4.52-1.74-6.94-1.74h-4.15v17.7Z" transform="translate(-35.48 -16)" fill="#575756"/>
    <path d="M168.9,61.07h-2.52V17.45h7c3.1,0,6.1.23,8.57,2.54a12.12,12.12,0,0,1,3.57,9c0,3.12-1.1,6.6-3.31,8.62-2.42,2.31-5.73,2.78-8.83,2.78H168.9Zm4.57-23.32c2.58,0,4.89-.34,6.94-2.37A8.94,8.94,0,0,0,183,28.84a9.05,9.05,0,0,0-3-7c-2-1.68-4.52-1.74-6.94-1.74H168.9v17.7Z" transform="translate(-35.48 -16)" fill="#575756"/>
    <path d="M230,39.26c0,12.26-9.42,22.39-20.56,22.39s-20.56-10.13-20.56-22.39,9.36-22.39,20.56-22.39S230,27,230,39.26Zm-38.6,0c0,10.76,8.15,19.78,18,19.78s18-9.08,18-19.78-8.2-19.79-18-19.79S191.35,28.5,191.35,39.26Z" transform="translate(-35.48 -16)" fill="#575756"/>
    <path d="M239.58,17.45h10.14l8,23.31,8.52-23.31h10.25l6,43.62h-10.3L269.34,36h-.11l-9.52,25.11h-4.1L246.52,36h-.11L243.1,61.07H232.85Z" transform="translate(-35.48 -16)" fill="#575756"/>
    <path d="M328.76,38.45c0,14.11-9.2,24.06-21.93,24.06s-21.92-9.95-21.92-24.06a21.93,21.93,0,1,1,43.85,0Zm-33.13,0c0,7.52,5.05,13,11.2,13S318,46,318,38.5c0-6-5-11.51-11.2-11.51S295.63,32.49,295.63,38.5Z" transform="translate(-35.48 -16)" fill="#575756"/>
    <path d="M333.55,17.45h10.31l18.87,26.67h.11V17.45h10.3V61.07h-10.3L344,34.34h-.1V61.07H333.55Z" transform="translate(-35.48 -16)" fill="#575756"/>
    <path d="M395.65,61.07h-10.3v-34h-8.52v-9.6h27.34v9.6h-8.52Z" transform="translate(-35.48 -16)" fill="#575756"/>
    <path d="M418.21,27.05v7.29h11.63v9.6H418.21v7.52h12.26v9.61H407.91V17.45h22.56v9.6Z" transform="translate(-35.48 -16)" fill="#575756"/>
    <path d="M447.14,51.46H459.5v9.61H436.83V17.45h10.31Z" transform="translate(-35.48 -16)" fill="#575756"/>
    <path d="M473.17,51.46h12.36v9.61H462.86V17.45h10.31Z" transform="translate(-35.48 -16)" fill="#575756"/>
    <path d="M530.75,38.45c0,14.11-9.2,24.06-21.93,24.06S486.9,52.56,486.9,38.45a21.93,21.93,0,1,1,43.85,0Zm-33.13,0c0,7.52,5.05,13,11.2,13S520,46,520,38.5c0-6-5-11.51-11.2-11.51S497.62,32.49,497.62,38.5Z" transform="translate(-35.48 -16)" fill="#575756"/>
  </g>
</svg>
